<?xml version="1.0" encoding="UTF-8"?>
<svg width="1200pt" height="1200pt" version="1.1" viewBox="0 0 1200 1200" xmlns="http://www.w3.org/2000/svg">
 <path d="m989.81 751.92c-0.51562-0.09375-1.0781-0.14062-1.6406-0.14062-5.1094 0-9.6562 3.7031-10.5 8.9531-0.89062 5.7656 3.0469 11.203 8.8125 12.141 2.8125 0.375 5.625-0.23438 7.8281-1.9219 2.2969-1.6406 3.7969-4.125 4.2656-6.8906 0.46875-2.8125-0.23438-5.6719-1.9219-7.9219-1.6406-2.25-4.0781-3.75-6.8438-4.2188z"/>
 <path d="m923.44 660.47c-0.5625-0.09375-1.125-0.14062-1.6875-0.14062-2.2031 0-4.3594 0.65625-6.1875 2.0156-2.2969 1.6406-3.7969 4.125-4.2656 6.8906-0.89062 5.7656 3.0469 11.25 8.8125 12.141 5.3906 0.60938 11.156-3.0469 12.094-8.8125 0.46875-2.8125-0.23438-5.6719-1.9219-7.9219-1.6406-2.25-4.0781-3.75-6.8438-4.1719z"/>
 <path d="m935.9 581.44c-0.5625-0.09375-1.125-0.14062-1.6875-0.14062-2.2031 0-4.3594 0.70312-6.1875 2.0156-2.2969 1.6406-3.7969 4.125-4.2188 6.9375-0.89062 5.8125 3.0469 11.25 8.8125 12.188 2.7656 0.32812 5.5781-0.23438 7.875-1.9219 2.2969-1.6406 3.7969-4.125 4.2656-6.9375 0.84375-5.7656-3.0938-11.203-8.8594-12.141z"/>
 <path d="m910.97 739.4c-0.5625-0.09375-1.125-0.14062-1.6875-0.14062-2.2031 0-4.3594 0.65625-6.1875 2.0156-2.2969 1.6406-3.7969 4.125-4.2656 6.8906-0.46875 2.8125 0.23438 5.6719 1.9219 7.9219 1.6406 2.2969 4.0781 3.7969 6.8906 4.2656 5.5781 0.65625 11.203-3.0469 12.141-8.8594 0.89062-5.7188-3.0938-11.156-8.8125-12.094z"/>
 <path d="m945.1 523.45c5.6719 0.75 11.156-3.0469 12.094-8.8594 0.89062-5.7656-3.0469-11.203-8.8125-12.141-0.5625-0.09375-1.125-0.14062-1.6406-0.14062-5.1094 0-9.6562 3.7031-10.453 8.9531-0.89062 5.8125 3.0469 11.25 8.8125 12.188z"/>
 <path d="m957.56 444.47c5.9062 0.84375 11.203-3.0938 12.141-8.8594 0.89062-5.7656-3.0469-11.203-8.8125-12.141-0.5625-0.09375-1.125-0.14062-1.6875-0.14062-2.2031 0-4.3594 0.70312-6.1875 2.0156-2.2969 1.6406-3.7969 4.125-4.2188 6.9375-0.9375 5.8125 3 11.25 8.7656 12.188z"/>
 <path d="m1002.3 672.94c-0.5625-0.09375-1.125-0.14062-1.6875-0.14062-2.2031 0-4.3594 0.65625-6.1875 2.0156-2.2969 1.6406-3.7969 4.125-4.2656 6.8906-0.89062 5.8125 3.0469 11.25 8.8125 12.188 5.5781 0.65625 11.203-3.0469 12.141-8.8594 0.89062-5.7188-3.0469-11.156-8.8125-12.094z"/>
 <path d="m1027.3 514.97c-0.5625-0.09375-1.0781-0.14062-1.6406-0.14062-5.1094 0-9.6562 3.7031-10.453 8.9531-0.89062 5.7656 3.0469 11.203 8.8125 12.141 5.8125 0.84375 11.203-3.0938 12.141-8.8594 0.84375-5.7188-3.1406-11.156-8.8594-12.094z"/>
 <path d="m1039.7 435.98c-0.5625-0.09375-1.125-0.14062-1.6406-0.14062-5.1094 0-9.6562 3.7031-10.453 8.9531-0.89062 5.7656 3.0469 11.203 8.8125 12.141 2.7656 0.46875 5.5781-0.23438 7.875-1.9219 2.2969-1.6406 3.7969-4.125 4.2188-6.9375 0.89062-5.7188-3.0469-11.156-8.8125-12.094z"/>
 <path d="m1014.8 593.95c-0.5625-0.09375-1.125-0.14062-1.6406-0.14062-5.1094 0-9.6562 3.7031-10.453 8.9531-0.89062 5.7656 3.0469 11.25 8.8125 12.141 2.7656 0.375 5.5781-0.23438 7.8281-1.9219 2.2969-1.6406 3.7969-4.0781 4.2656-6.8906 0.84375-5.7656-3.0938-11.203-8.8125-12.141z"/>
 <path d="m1116.2 267.24-215.48-34.266-18.75 119.25-21.984-49.266-39.234 54.75-36-73.734-37.266 55.734-39.516-75.234-35.016 57.234-43.5-77.25-43.266 77.016-35.25-57-39.516 75.516-37.266-56.016-35.766 73.734-39.234-54.75-21.984 48.984-18.75-119.02-59.25 9.2344-18.516 3-197.02 31.266c-21.75 3.5156-36.75 24-33.234 45.984l96.516 610.74c1.7344 10.5 7.5 19.734 15.984 26.016 6.9844 5.25 15.234 7.7344 23.484 7.7344 2.25 0 4.2656-0.23438 6.5156-0.51563l196.74-31.266 18.516-3 59.25-9.2344-10.266-64.266 17.016 12.516 28.266-26.25 22.734 17.484 29.766-26.766 21.984 17.766 31.266-27 21.234 18 21.516-18 30.984 27 21.984-17.766 29.766 26.766 22.734-17.484 28.266 26.25 17.25-12.75-10.266 64.5 215.48 34.266c2.0156 0.23437 3.9844 0.51562 6.2344 0.51562 19.266 0 36.234-14.25 39.516-33.75l96.516-611.02c3.5625-21.656-11.438-42.141-33.188-45.656zm-865.22 557.02 2.0156 12.516-60.234 9.5156-6.5156-40.734 60.234-9.5156 2.0156 12.516 78.984-12.234 2.25 15.516zm-74.016-78 138.98-21.984 4.5 28.266-78.75 12.516 2.0156 12.516-60.516 9.5156zm-9.5156-59.016 60.234-9.75 2.0156 12.75 78.984-12.516 4.5 27.984-139.26 21.984zm-9.2344-59.25 59.484-9.5156 0.75-0.23438 2.0156 12.75 78.984-12.516 2.25 15.516-78.75 12.516 2.0156 12.516-60.516 9.5156zm-9.5156-59.25 60.516-9.75 2.0156 12.75 78.75-12.516 2.4844 15.516-78.984 12.516 2.0156 12.516-60.234 9.5156zm-9.2344-59.25 69.75-11.016 69.516-11.016 4.2656 27.984-78.75 12.516 2.0156 12.516-60.281 9.5156zm-9.5156-59.25 57.234-9.2344 3.2344-0.51562 2.0156 12.75 78.75-12.516 4.5 27.984-139.26 21.984zm-9.2344-59.25 60.234-9.75 2.0156 12.75 78.984-12.516 2.25 15.516-78.75 12.516 2.0156 12.516-60.234 9.5156zm-9.5156-59.25 139.26-22.266 4.5 28.266-78.75 12.516 2.0156 12.516-60.516 9.5156zm90.75 573.74-6.2344-40.734 60.234-9.5156 2.0156 12.516 78.75-12.234 4.5 27.984zm203.53 8.25-103.27-652.74 40.5-6.5156 20.484 129 19.5 123.74 52.734 335.26 0.23438 0.23438 10.266 64.5zm536.44-503.53c6.3281-4.6406 14.062-6.5156 21.844-5.25 15.984 2.5312 26.906 17.578 24.422 33.562-2.2969 14.438-14.812 24.797-28.969 24.797-1.5469 0-3.0469-0.09375-4.5938-0.32812-15.984-2.5312-26.906-17.625-24.375-33.609 1.1719-7.7344 5.3906-14.531 11.672-19.172zm9.375 73.734c15.984 2.5312 26.906 17.625 24.375 33.609-2.2969 14.438-14.812 24.797-28.969 24.797-1.5469 0-3.0469-0.09375-4.5938-0.32812-15.984-2.5312-26.906-17.625-24.422-33.609 2.625-16.031 17.672-27 33.609-24.469zm-42.094 295.36c-1.5 0-3.0469-0.14062-4.5938-0.375-15.984-2.5312-26.906-17.625-24.375-33.609 1.2188-7.7344 5.3906-14.531 11.719-19.219 6.3281-4.5938 14.109-6.4219 21.844-5.2031 15.984 2.5312 26.906 17.578 24.422 33.562-2.2969 14.484-14.812 24.844-29.016 24.844zm12.562-78.984c-1.5469 0-3.0938-0.14063-4.6406-0.375-15.984-2.4844-26.906-17.531-24.422-33.562 2.5312-15.984 17.578-26.953 33.562-24.422 7.7344 1.2188 14.484 5.3906 19.125 11.719 4.6406 6.375 6.5156 14.109 5.25 21.891-2.2031 14.438-14.719 24.75-28.875 24.75zm12.516-78.984c-1.5938 0-3.1406-0.14062-4.6875-0.375-15.984-2.5312-26.906-17.578-24.375-33.609 1.2188-7.7344 5.3906-14.531 11.719-19.172 6.3281-4.6406 14.062-6.4688 21.844-5.25 15.984 2.5312 26.906 17.578 24.422 33.562-1.2188 7.7812-5.3906 14.578-11.719 19.172-5.1094 3.7031-11.062 5.6719-17.203 5.6719zm71.062 164.86c-5.0625 3.6562-11.016 5.5781-17.156 5.5781-1.5938 0-3.0938-0.14062-4.6875-0.375-15.984-2.5312-26.906-17.578-24.422-33.562 2.5312-15.984 17.391-26.953 33.562-24.469 15.984 2.5312 26.906 17.625 24.375 33.609-1.125 7.7812-5.3438 14.625-11.672 19.219zm-4.7812-73.359c-1.5 0-3.0469-0.14062-4.5938-0.375-15.984-2.5312-26.906-17.578-24.375-33.609 1.2188-7.7344 5.3906-14.531 11.719-19.219 6.3281-4.5938 14.109-6.4688 21.844-5.2031 15.984 2.5312 26.906 17.578 24.422 33.562-2.2969 14.484-14.812 24.844-29.016 24.844zm29.766-84.609c-5.0625 3.6562-11.016 5.5781-17.156 5.5781-1.5938 0-3.0938-0.14062-4.6875-0.375-15.984-2.4844-26.906-17.531-24.422-33.562 2.5312-15.984 17.578-26.906 33.562-24.422 15.984 2.5312 26.906 17.625 24.375 33.609-1.1719 7.7344-5.3438 14.531-11.672 19.172zm-4.7812-73.406c-1.5469 0-3.0469-0.09375-4.5938-0.32812-15.984-2.5312-26.906-17.625-24.375-33.609s17.531-26.953 33.562-24.422c15.984 2.5312 26.906 17.578 24.422 33.562-2.2969 14.484-14.812 24.797-29.016 24.797zm29.766-84.609c-5.0625 3.6562-11.062 5.625-17.203 5.625-1.5469 0-3.0938-0.14062-4.6406-0.375-15.984-2.5312-26.906-17.625-24.422-33.609 2.5312-15.984 17.719-26.953 33.562-24.469 15.984 2.5312 26.906 17.625 24.375 33.609-1.1719 7.8281-5.3438 14.625-11.672 19.219z"/>
</svg>
